<svg xmlns="http://www.w3.org/2000/svg" width="26.623" height="29.248" viewBox="0 0 26.623 29.248">
  <g id="Icon_feather-home" data-name="Icon feather-home" transform="translate(1.5 1.5)">
    <path id="Path_4" data-name="Path 4" d="M21.374,32.624a1.5,1.5,0,0,1-1.5-1.5V19.5H15V31.124a1.5,1.5,0,0,1-3,0V18a1.5,1.5,0,0,1,1.5-1.5h7.874a1.5,1.5,0,0,1,1.5,1.5V31.124A1.5,1.5,0,0,1,21.374,32.624Z" transform="translate(-5.626 -4.876)" fill="#002d67"/>
    <path id="Path_3" data-name="Path 3" d="M16.311,1.5a1.5,1.5,0,0,1,.921.316L29.044,11a1.5,1.5,0,0,1,.579,1.184V26.623A4.129,4.129,0,0,1,25.5,30.748H7.125A4.129,4.129,0,0,1,3,26.623V12.187A1.5,1.5,0,0,1,3.579,11L15.39,1.816A1.5,1.5,0,0,1,16.311,1.5ZM26.623,12.92,16.311,4.9,6,12.92v13.7a1.126,1.126,0,0,0,1.125,1.125H25.5a1.126,1.126,0,0,0,1.125-1.125Z" transform="translate(-4.5 -3)" fill="#588dd0"/>
  </g>
</svg>
