<svg xmlns="http://www.w3.org/2000/svg" width="27.492" height="27.492" viewBox="0 0 27.492 27.492">
  <g id="Icon_feather-settings" data-name="Icon feather-settings" transform="translate(1.25 1.25)">
    <path id="Path_1" data-name="Path 1" d="M16.908,21.566a4.658,4.658,0,1,1,4.658-4.658A4.663,4.663,0,0,1,16.908,21.566Zm0-6.816a2.158,2.158,0,1,0,2.158,2.158A2.16,2.16,0,0,0,16.908,14.75Z" transform="translate(-4.412 -4.412)" fill="#002d67"/>
    <path id="Path_2" data-name="Path 2" d="M14.087,27.742a3.526,3.526,0,0,1-3.522-3.522v-.084a.621.621,0,0,0-.408-.561l-.073-.03a.624.624,0,0,0-.685.122l-.062.062a3.523,3.523,0,1,1-4.982-4.983l.061-.061A.621.621,0,0,0,4.537,18l-.005-.012a.624.624,0,0,0-.571-.378H3.772a3.522,3.522,0,0,1,0-7.044h.084a.621.621,0,0,0,.561-.408q.014-.037.03-.073A.621.621,0,0,0,4.324,9.4l-.062-.062A3.523,3.523,0,1,1,9.246,4.354l.061.061a.624.624,0,0,0,.685.122,1.25,1.25,0,0,1,.225-.075.624.624,0,0,0,.256-.5V3.772a3.522,3.522,0,1,1,7.044,0v.1a.622.622,0,0,0,.378.566l.012.005a.624.624,0,0,0,.685-.122l.062-.062a3.523,3.523,0,1,1,4.982,4.983l-.061.061a.621.621,0,0,0-.122.685,1.25,1.25,0,0,1,.075.225.624.624,0,0,0,.5.256h.188a3.522,3.522,0,0,1,0,7.044h-.1a.622.622,0,0,0-.566.378l-.005.012a.621.621,0,0,0,.122.685l.062.062a3.523,3.523,0,1,1-4.983,4.982l-.061-.061A.624.624,0,0,0,18,23.455l-.012.005a.624.624,0,0,0-.378.571v.188A3.526,3.526,0,0,1,14.087,27.742Zm-3.031-6.5a3.107,3.107,0,0,1,2.008,2.845q0,.015,0,.029v.1a1.022,1.022,0,0,0,2.044,0v-.193a3.137,3.137,0,0,1,5.328-2.234l.01.01.068.068a1.023,1.023,0,1,0,1.448-1.447l-.069-.069-.01-.01a3.14,3.14,0,0,1,2.229-5.328h.107a1.022,1.022,0,1,0,0-2.044h-.193a3.124,3.124,0,0,1-2.864-1.894,1.25,1.25,0,0,1-.089-.317,3.108,3.108,0,0,1,.719-3.208l.01-.01.068-.068A1.023,1.023,0,1,0,20.424,6.03l-.069.069-.01.01a3.14,3.14,0,0,1-5.328-2.229V3.772a1.022,1.022,0,1,0-2.044,0v.193A3.124,3.124,0,0,1,11.08,6.829a1.25,1.25,0,0,1-.318.089A3.125,3.125,0,0,1,7.555,6.2l-.01-.01-.068-.068A1.023,1.023,0,1,0,6.03,7.568l.069.069.01.01a3.109,3.109,0,0,1,.641,3.41A3.107,3.107,0,0,1,3.9,13.065H3.772a1.022,1.022,0,0,0,0,2.044h.193A3.14,3.14,0,0,1,6.2,20.436l-.01.01-.068.068a1.023,1.023,0,1,0,1.447,1.448l.069-.069.01-.01a3.124,3.124,0,0,1,3.41-.641Z" transform="translate(-1.5 -1.5)" fill="#588dd0"/>
  </g>
</svg>
