<svg xmlns="http://www.w3.org/2000/svg" width="27.451" height="10.35" viewBox="0 0 27.451 10.35">
  <path id="_Time" data-name="↳ Time" d="M16.433,13.239c2.509,0,4-1.962,4-5.284a6.336,6.336,0,0,0-.7-3.117A3.5,3.5,0,0,0,16.487,2.89a3.43,3.43,0,0,0-3.664,3.466A3.159,3.159,0,0,0,16.07,9.637,2.727,2.727,0,0,0,18.627,8.16h.116c0,2.256-.854,3.6-2.3,3.6a1.716,1.716,0,0,1-1.729-1.21H12.96A3.324,3.324,0,0,0,16.433,13.239Zm.062-5A1.865,1.865,0,0,1,14.553,6.3a1.948,1.948,0,1,1,3.9.027A1.874,1.874,0,0,1,16.494,8.235Zm7.038,3.719a1.08,1.08,0,1,0-1.094-1.08A1.048,1.048,0,0,0,23.532,11.954Zm0-5.127a1.043,1.043,0,0,0,1.094-1.073,1.094,1.094,0,0,0-2.187,0A1.047,1.047,0,0,0,23.532,6.827ZM31.445,13h1.688V11.161h1.333V9.671H33.134V3.136H30.646c-1.743,2.625-3.131,4.819-4.02,6.453v1.572h4.819ZM28.26,9.609c1.148-2.023,2.174-3.644,3.117-5.038h.1V9.712H28.26ZM38.511,13h1.764V3.136H38.518L35.94,4.94v1.7l2.454-1.723h.116Z" transform="translate(-12.823 -2.89)" fill="#fff"/>
</svg>
